<?xml version="1.0" encoding="UTF-8"?>
<!DOCTYPE svg PUBLIC "-//W3C//DTD SVG 1.1//EN" "http://www.w3.org/Graphics/SVG/1.1/DTD/svg11.dtd">
<svg xmlns="http://www.w3.org/2000/svg" version="1.1" width="745px" height="775px" style="shape-rendering:geometricPrecision; text-rendering:geometricPrecision; image-rendering:optimizeQuality; fill-rule:evenodd; clip-rule:evenodd" xmlns:xlink="http://www.w3.org/1999/xlink">
<g><path style="opacity:0.976" fill="#009100" d="M 373.5,13.5 C 396.399,29.6581 405.232,51.6581 400,79.5C 396.103,95.6552 387.103,107.989 373,116.5C 350.236,100.232 341.569,78.2317 347,50.5C 351.44,34.9119 360.274,22.5786 373.5,13.5 Z"/></g>
<g><path style="opacity:0.97" fill="#009100" d="M 302.5,86.5 C 327.529,86.2528 344.029,97.9195 352,121.5C 353.612,127.491 353.779,133.491 352.5,139.5C 325.743,145.039 306.909,135.372 296,110.5C 293.773,103.575 293.273,96.5751 294.5,89.5C 297.092,88.0827 299.759,87.0827 302.5,86.5 Z"/></g>
<g><path style="opacity:0.967" fill="#009100" d="M 434.5,86.5 C 439.887,86.4054 445.22,86.9054 450.5,88C 451.667,88.5 452.5,89.3333 453,90.5C 454.016,112.31 444.849,128.143 425.5,138C 415.304,141.891 404.971,142.391 394.5,139.5C 392.653,110.35 405.987,92.6832 434.5,86.5 Z"/></g>
<g><path style="opacity:0.979" fill="#009100" d="M 66.5,94.5 C 135.167,94.5 203.833,94.5 272.5,94.5C 272.61,103.608 274.61,112.274 278.5,120.5C 214.17,121.5 149.837,121.833 85.5,121.5C 85.5,207.5 85.5,293.5 85.5,379.5C 76.425,381.803 67.5916,384.803 59,388.5C 58.3333,293.167 58.3333,197.833 59,102.5C 60.6904,98.9791 63.1904,96.3124 66.5,94.5 Z"/></g>
<g><path style="opacity:0.979" fill="#009000" d="M 473.5,94.5 C 542.501,94.3333 611.501,94.5 680.5,95C 683.171,96.25 685.337,98.0833 687,100.5C 688.662,196.419 688.995,292.419 688,388.5C 679.408,384.803 670.575,381.803 661.5,379.5C 661.5,293.5 661.5,207.5 661.5,121.5C 597.166,121.667 532.832,121.5 468.5,121C 472.41,112.615 474.077,103.782 473.5,94.5 Z"/></g>
<g><path style="opacity:0.989" fill="#009100" d="M 606.5,390.5 C 589.967,388.395 573.634,386.061 557.5,383.5C 551.972,318.579 521.639,269.079 466.5,235C 405.551,202.337 344.551,202.337 283.5,235C 228.377,269.041 198.043,318.541 192.5,383.5C 175.201,385.164 157.868,387.497 140.5,390.5C 140.5,319.167 140.5,247.833 140.5,176.5C 295.833,176.5 451.167,176.5 606.5,176.5C 606.5,247.833 606.5,319.167 606.5,390.5 Z M 557.5,383.5 C 547.167,383.5 536.833,383.5 526.5,383.5C 520.127,324.331 490.461,281.497 437.5,255C 384.463,233.579 334.13,238.579 286.5,270C 248.753,298.309 227.753,336.142 223.5,383.5C 213.167,383.5 202.833,383.5 192.5,383.5C 198.043,318.541 228.377,269.041 283.5,235C 344.551,202.337 405.551,202.337 466.5,235C 521.639,269.079 551.972,318.579 557.5,383.5 Z"/></g>
<g><path style="opacity:0.995" fill="#fefe09" d="M 526.5,383.5 C 472.757,385.015 421.424,397.015 372.5,419.5C 325.36,397.142 275.693,385.142 223.5,383.5C 227.753,336.142 248.753,298.309 286.5,270C 334.13,238.579 384.463,233.579 437.5,255C 490.461,281.497 520.127,324.331 526.5,383.5 Z"/></g>
<g><path style="opacity:0.993" fill="#cbfe41" d="M 192.5,383.5 C 202.833,383.5 213.167,383.5 223.5,383.5C 275.693,385.142 325.36,397.142 372.5,419.5C 363.174,424.496 353.841,429.496 344.5,434.5C 232.521,392.917 125.521,402.917 23.5,464.5C 20.1461,455.736 18.4794,446.736 18.5,437.5C 56.3242,414.593 96.9908,398.926 140.5,390.5C 157.868,387.497 175.201,385.164 192.5,383.5 Z"/></g>
<g><path style="opacity:0.996" fill="#99dd00" d="M 526.5,383.5 C 536.833,383.5 547.167,383.5 557.5,383.5C 573.634,386.061 589.967,388.395 606.5,390.5C 650.009,398.926 690.676,414.593 728.5,437.5C 728.521,446.736 726.854,455.736 723.5,464.5C 640.424,413.709 551.091,398.209 455.5,418C 337.576,448.7 255.076,520.2 208,632.5C 202.191,647.925 197.191,663.592 193,679.5C 188.978,676.235 184.478,674.235 179.5,673.5C 177.632,672.737 175.965,671.737 174.5,670.5C 174.611,669.883 174.944,669.383 175.5,669C 173.415,667.959 171.748,666.459 170.5,664.5C 172.998,655.171 175.998,646.005 179.5,637C 178.906,636.536 178.239,636.369 177.5,636.5C 178.172,635.733 179.005,635.066 180,634.5C 180.881,631.353 182.047,628.353 183.5,625.5C 187.143,615.379 191.476,605.546 196.5,596C 195.906,595.536 195.239,595.369 194.5,595.5C 195.209,594.596 196.209,594.263 197.5,594.5C 198.26,590.973 199.594,587.64 201.5,584.5C 198.914,583.52 196.247,583.187 193.5,583.5C 196.689,582.834 200.023,582.167 203.5,581.5C 207.795,573.223 212.462,565.223 217.5,557.5C 220.366,552.943 223.366,548.443 226.5,544C 225.263,543.768 224.263,543.268 223.5,542.5C 226.325,542.919 228.491,541.919 230,539.5C 234.045,533.91 238.212,528.41 242.5,523C 241.263,522.768 240.263,522.268 239.5,521.5C 240.873,521.657 242.207,521.49 243.5,521C 247.67,515.998 252.004,511.164 256.5,506.5C 261.833,500.833 267.167,495.167 272.5,489.5C 278.193,484.139 283.86,478.805 289.5,473.5C 295.419,469.917 300.752,465.584 305.5,460.5C 313.777,455.541 321.444,449.875 328.5,443.5C 334.323,441.337 339.657,438.337 344.5,434.5C 353.841,429.496 363.174,424.496 372.5,419.5C 421.424,397.015 472.757,385.015 526.5,383.5 Z"/></g>
<g><path style="opacity:0.999" fill="#099301" d="M 344.5,434.5 C 339.657,438.337 334.323,441.337 328.5,443.5C 222.286,407.752 121.953,419.752 27.5,479.5C 26.167,474.501 24.8336,469.501 23.5,464.5C 125.521,402.917 232.521,392.917 344.5,434.5 Z"/></g>
<g><path style="opacity:0.998" fill="#059200" d="M 723.5,464.5 C 722.166,469.501 720.833,474.501 719.5,479.5C 629.693,422.939 533.693,409.439 431.5,439C 330.415,474.086 259.915,541.253 220,640.5C 214.924,655.32 210.424,670.32 206.5,685.5C 212.71,690.605 219.71,694.105 227.5,696C 252.438,591.067 313.771,516.067 411.5,471C 507.667,432.974 601,438.974 691.5,489C 698.57,492.587 704.903,497.087 710.5,502.5C 708.678,508.136 706.345,513.469 703.5,518.5C 703.586,517.504 703.252,516.671 702.5,516C 625.932,465.123 542.932,451.123 453.5,474C 351.173,506.327 283.339,573.494 250,675.5C 248.068,684.396 245.901,693.229 243.5,702C 243.82,703.653 244.82,704.653 246.5,705C 252.019,707.34 257.686,709.173 263.5,710.5C 279.343,627.945 323.009,564.779 394.5,521C 471.24,478.4 550.907,472.067 633.5,502C 655.593,510.874 676.26,522.041 695.5,535.5C 692.071,542.032 688.404,548.366 684.5,554.5C 684.719,553.325 684.386,552.325 683.5,551.5C 630.205,513.73 570.872,497.897 505.5,504C 422.307,515.65 358.474,556.816 314,627.5C 297.712,655.199 286.879,684.866 281.5,716.5C 285.527,717.139 289.527,717.972 293.5,719C 294.056,719.383 294.389,719.883 294.5,720.5C 253.064,712.032 214.731,696.365 179.5,673.5C 184.478,674.235 188.978,676.235 193,679.5C 197.191,663.592 202.191,647.925 208,632.5C 255.076,520.2 337.576,448.7 455.5,418C 551.091,398.209 640.424,413.709 723.5,464.5 Z"/></g>
<g><path style="opacity:1" fill="#cafe41" d="M 328.5,443.5 C 321.444,449.875 313.777,455.541 305.5,460.5C 210.899,432.99 122.232,445.824 39.5,499C 38.2899,500.039 37.2899,501.206 36.5,502.5C 33.3236,494.983 30.3236,487.316 27.5,479.5C 121.953,419.752 222.286,407.752 328.5,443.5 Z"/></g>
<g><path style="opacity:1" fill="#98dd00" d="M 719.5,479.5 C 716.676,487.316 713.676,494.983 710.5,502.5C 704.903,497.087 698.57,492.587 691.5,489C 601,438.974 507.667,432.974 411.5,471C 313.771,516.067 252.438,591.067 227.5,696C 219.71,694.105 212.71,690.605 206.5,685.5C 210.424,670.32 214.924,655.32 220,640.5C 259.915,541.253 330.415,474.086 431.5,439C 533.693,409.439 629.693,422.939 719.5,479.5 Z"/></g>
<g><path style="opacity:0.998" fill="#089301" d="M 305.5,460.5 C 300.752,465.584 295.419,469.917 289.5,473.5C 201.406,451.404 119.739,465.57 44.5,516C 43.7476,516.671 43.4142,517.504 43.5,518.5C 40.6554,513.469 38.3221,508.136 36.5,502.5C 37.2899,501.206 38.2899,500.039 39.5,499C 122.232,445.824 210.899,432.99 305.5,460.5 Z"/></g>
<g><path style="opacity:1" fill="#c9fd41" d="M 289.5,473.5 C 283.86,478.805 278.193,484.139 272.5,489.5C 193.322,473.435 120.655,488.268 54.5,534C 53.552,534.483 52.552,534.649 51.5,534.5C 48.3255,529.484 45.6588,524.151 43.5,518.5C 43.4142,517.504 43.7476,516.671 44.5,516C 119.739,465.57 201.406,451.404 289.5,473.5 Z"/></g>
<g><path style="opacity:1" fill="#98dd00" d="M 703.5,518.5 C 701.104,524.292 698.437,529.959 695.5,535.5C 676.26,522.041 655.593,510.874 633.5,502C 550.907,472.067 471.24,478.4 394.5,521C 323.009,564.779 279.343,627.945 263.5,710.5C 257.686,709.173 252.019,707.34 246.5,705C 244.82,704.653 243.82,703.653 243.5,702C 245.901,693.229 248.068,684.396 250,675.5C 283.339,573.494 351.173,506.327 453.5,474C 542.932,451.123 625.932,465.123 702.5,516C 703.252,516.671 703.586,517.504 703.5,518.5 Z"/></g>
<g><path style="opacity:0.998" fill="#059200" d="M 272.5,489.5 C 267.167,495.167 261.833,500.833 256.5,506.5C 185.98,495.549 121.647,510.549 63.5,551.5C 62.6143,552.325 62.281,553.325 62.5,554.5C 58.3292,548.162 54.6625,541.496 51.5,534.5C 52.552,534.649 53.552,534.483 54.5,534C 120.655,488.268 193.322,473.435 272.5,489.5 Z"/></g>
<g><path style="opacity:1" fill="#c8fd40" d="M 256.5,506.5 C 252.004,511.164 247.67,515.998 243.5,521C 242.207,521.49 240.873,521.657 239.5,521.5C 177.166,515.496 120.832,530.83 70.5,567.5C 67.5825,563.334 64.9159,559.001 62.5,554.5C 62.281,553.325 62.6143,552.325 63.5,551.5C 121.647,510.549 185.98,495.549 256.5,506.5 Z"/></g>
<g><path style="opacity:1" fill="#98dc00" d="M 684.5,554.5 C 682.084,559.001 679.417,563.334 676.5,567.5C 614.612,523.872 546.612,510.705 472.5,528C 388.364,553.469 332.531,607.969 305,691.5C 302.257,701.05 300.09,710.716 298.5,720.5C 297.167,720.5 295.833,720.5 294.5,720.5C 294.389,719.883 294.056,719.383 293.5,719C 289.527,717.972 285.527,717.139 281.5,716.5C 286.879,684.866 297.712,655.199 314,627.5C 358.474,556.816 422.307,515.65 505.5,504C 570.872,497.897 630.205,513.73 683.5,551.5C 684.386,552.325 684.719,553.325 684.5,554.5 Z"/></g>
<g><path style="opacity:0.997" fill="#059200" d="M 239.5,521.5 C 240.263,522.268 241.263,522.768 242.5,523C 238.212,528.41 234.045,533.91 230,539.5C 228.491,541.919 226.325,542.919 223.5,542.5C 174.03,540.622 129.03,553.789 88.5,582C 86.8082,583.307 85.4749,584.807 84.5,586.5C 79.113,580.738 74.4463,574.405 70.5,567.5C 120.832,530.83 177.166,515.496 239.5,521.5 Z"/></g>
<g><path style="opacity:0.998" fill="#039200" d="M 676.5,567.5 C 672.554,574.405 667.887,580.738 662.5,586.5C 658.688,582.539 654.355,579.039 649.5,576C 585.923,538.342 519.59,532.675 450.5,559C 388.254,586.916 346.754,633.416 326,698.5C 323.53,707.044 321.697,715.711 320.5,724.5C 321.791,724.263 322.791,724.596 323.5,725.5C 313.545,724.786 303.878,723.119 294.5,720.5C 295.833,720.5 297.167,720.5 298.5,720.5C 300.09,710.716 302.257,701.05 305,691.5C 332.531,607.969 388.364,553.469 472.5,528C 546.612,510.705 614.612,523.872 676.5,567.5 Z"/></g>
<g><path style="opacity:1" fill="#c8fd40" d="M 223.5,542.5 C 224.263,543.268 225.263,543.768 226.5,544C 223.366,548.443 220.366,552.943 217.5,557.5C 180.011,556.456 145.011,565.289 112.5,584C 105.945,588.439 99.2787,592.605 92.5,596.5C 89.3637,593.571 86.697,590.238 84.5,586.5C 85.4749,584.807 86.8082,583.307 88.5,582C 129.03,553.789 174.03,540.622 223.5,542.5 Z"/></g>
<g><path style="opacity:1" fill="#98dc00" d="M 662.5,586.5 C 659.975,590.896 656.975,594.896 653.5,598.5C 650.687,594.533 647.021,591.366 642.5,589C 585.512,554.631 525.512,548.298 462.5,570C 400.451,595.049 359.617,639.549 340,703.5C 337.862,710.717 336.362,718.05 335.5,725.5C 331.5,725.5 327.5,725.5 323.5,725.5C 322.791,724.596 321.791,724.263 320.5,724.5C 321.697,715.711 323.53,707.044 326,698.5C 346.754,633.416 388.254,586.916 450.5,559C 519.59,532.675 585.923,538.342 649.5,576C 654.355,579.039 658.688,582.539 662.5,586.5 Z"/></g>
<g><path style="opacity:0.997" fill="#059200" d="M 217.5,557.5 C 212.462,565.223 207.795,573.223 203.5,581.5C 200.023,582.167 196.689,582.834 193.5,583.5C 162.865,586.658 135.199,597.324 110.5,615.5C 111.63,616.622 112.297,617.956 112.5,619.5C 105.093,612.43 98.4268,604.764 92.5,596.5C 99.2787,592.605 105.945,588.439 112.5,584C 145.011,565.289 180.011,556.456 217.5,557.5 Z"/></g>
<g><path style="opacity:1" fill="#97dc00" d="M 634.5,619.5 C 633.167,621.5 631.5,623.167 629.5,624.5C 579.277,591.642 525.944,585.809 469.5,607C 424.398,627.771 393.565,661.605 377,708.5C 374.865,715.039 373.365,721.706 372.5,728.5C 368.5,728.5 364.5,728.5 360.5,728.5C 372.584,666.585 407.251,622.419 464.5,596C 523.721,573.355 580.054,579.022 633.5,613C 634.5,613.833 635.5,614.667 636.5,615.5C 635.37,616.622 634.703,617.956 634.5,619.5 Z"/></g>
<g><path style="opacity:1" fill="#c8fc40" d="M 193.5,583.5 C 196.247,583.187 198.914,583.52 201.5,584.5C 199.594,587.64 198.26,590.973 197.5,594.5C 196.209,594.263 195.209,594.596 194.5,595.5C 166.283,598.679 140.617,608.346 117.5,624.5C 115.5,623.167 113.833,621.5 112.5,619.5C 112.297,617.956 111.63,616.622 110.5,615.5C 135.199,597.324 162.865,586.658 193.5,583.5 Z"/></g>
<g><path style="opacity:0.998" fill="#039100" d="M 653.5,598.5 C 647.508,605.825 641.175,612.825 634.5,619.5C 634.703,617.956 635.37,616.622 636.5,615.5C 635.5,614.667 634.5,613.833 633.5,613C 580.054,579.022 523.721,573.355 464.5,596C 407.251,622.419 372.584,666.585 360.5,728.5C 364.5,728.5 368.5,728.5 372.5,728.5C 373.365,721.706 374.865,715.039 377,708.5C 393.565,661.605 424.398,627.771 469.5,607C 525.944,585.809 579.277,591.642 629.5,624.5C 622.492,631.508 615.158,638.174 607.5,644.5C 601.01,639.082 593.677,634.915 585.5,632C 524.329,610.898 471.829,624.064 428,671.5C 414.594,687.979 405.761,706.646 401.5,727.5C 402.833,727.5 404.167,727.5 405.5,727.5C 378.088,730.456 350.755,729.789 323.5,725.5C 327.5,725.5 331.5,725.5 335.5,725.5C 336.362,718.05 337.862,710.717 340,703.5C 359.617,639.549 400.451,595.049 462.5,570C 525.512,548.298 585.512,554.631 642.5,589C 647.021,591.366 650.687,594.533 653.5,598.5 Z"/></g>
<g><path style="opacity:0.993" fill="#059200" d="M 194.5,595.5 C 195.239,595.369 195.906,595.536 196.5,596C 191.476,605.546 187.143,615.379 183.5,625.5C 168.52,628.49 154.52,633.99 141.5,642C 140.619,642.708 139.953,643.542 139.5,644.5C 131.842,638.174 124.508,631.508 117.5,624.5C 140.617,608.346 166.283,598.679 194.5,595.5 Z"/></g>
<g><path style="opacity:0.963" fill="#009100" d="M 58.5,609.5 C 66.7244,619.9 75.5577,629.9 85,639.5C 85.5,658.83 85.6666,678.164 85.5,697.5C 108.502,697.333 131.502,697.5 154.5,698C 169.01,707.425 184.01,716.091 199.5,724C 154.441,724.984 109.441,724.651 64.5,723C 62.2911,721.127 60.4578,718.96 59,716.5C 58.5,680.835 58.3333,645.168 58.5,609.5 Z"/></g>
<g><path style="opacity:0.965" fill="#009100" d="M 687.5,609.5 C 688.664,644.998 688.831,680.664 688,716.5C 686.542,718.96 684.709,721.127 682.5,723C 637.559,724.651 592.559,724.984 547.5,724C 563.158,715.84 578.491,707.173 593.5,698C 616.164,697.5 638.831,697.333 661.5,697.5C 661.333,678.497 661.5,659.497 662,640.5C 671.113,630.565 679.613,620.231 687.5,609.5 Z"/></g>
<g><path style="opacity:1" fill="#96dc00" d="M 607.5,644.5 C 605.192,646.471 602.858,648.471 600.5,650.5C 566.209,630.01 529.876,625.844 491.5,638C 450.482,654.185 423.482,683.351 410.5,725.5C 408.709,726.17 407.042,726.837 405.5,727.5C 404.167,727.5 402.833,727.5 401.5,727.5C 405.761,706.646 414.594,687.979 428,671.5C 471.829,624.064 524.329,610.898 585.5,632C 593.677,634.915 601.01,639.082 607.5,644.5 Z"/></g>
<g><path style="opacity:1" fill="#c6fc40" d="M 183.5,625.5 C 182.047,628.353 180.881,631.353 180,634.5C 179.005,635.066 178.172,635.733 177.5,636.5C 166.247,639.296 155.914,643.963 146.5,650.5C 144.142,648.471 141.808,646.471 139.5,644.5C 139.953,643.542 140.619,642.708 141.5,642C 154.52,633.99 168.52,628.49 183.5,625.5 Z"/></g>
<g><path style="opacity:0.996" fill="#029100" d="M 600.5,650.5 C 591.519,657.657 582.185,664.324 572.5,670.5C 528.767,652.949 490.934,661.616 459,696.5C 453.413,704.001 448.579,712.001 444.5,720.5C 444.833,720.833 445.167,721.167 445.5,721.5C 447.709,720.894 449.876,720.227 452,719.5C 473.95,679.942 507.45,663.442 552.5,670C 557.399,671.691 562.399,672.857 567.5,673.5C 518.131,704.845 464.131,722.845 405.5,727.5C 407.042,726.837 408.709,726.17 410.5,725.5C 423.482,683.351 450.482,654.185 491.5,638C 529.876,625.844 566.209,630.01 600.5,650.5 Z"/></g>
<g><path style="opacity:0.977" fill="#069300" d="M 177.5,636.5 C 178.239,636.369 178.906,636.536 179.5,637C 175.998,646.005 172.998,655.171 170.5,664.5C 171.748,666.459 173.415,667.959 175.5,669C 174.944,669.383 174.611,669.883 174.5,670.5C 164.815,664.324 155.481,657.657 146.5,650.5C 155.914,643.963 166.247,639.296 177.5,636.5 Z"/></g>
<g><path style="opacity:1" fill="#94db00" d="M 572.5,670.5 C 571.035,671.737 569.368,672.737 567.5,673.5C 562.399,672.857 557.399,671.691 552.5,670C 507.45,663.442 473.95,679.942 452,719.5C 449.876,720.227 447.709,720.894 445.5,721.5C 445.167,721.167 444.833,720.833 444.5,720.5C 448.579,712.001 453.413,704.001 459,696.5C 490.934,661.616 528.767,652.949 572.5,670.5 Z"/></g>
</svg>
